<svg width="64" height="64" viewBox="0 0 64 64" fill="none" xmlns="http://www.w3.org/2000/svg">
<rect x="5" y="9" width="54" height="50" rx="8" fill="url(#paint0_linear_3007_6456)"/>
<rect x="5" y="5" width="54" height="50" rx="8" fill="#7F8797"/>
<rect x="9" y="9" width="45" height="42" rx="3" fill="#01011A"/>
<g clip-path="url(#clip0_3007_6456)">
<path d="M26.1125 20.2017C28.8795 22.1921 30.5193 25.168 30.8953 28.306C27.8006 28.9476 24.4577 28.3395 21.6907 26.3491C19.1269 24.505 17.5308 21.8147 17.0112 18.9332C16.9415 18.5472 17.2052 18.1806 17.5934 18.1238C20.4905 17.7 23.5487 18.3575 26.1125 20.2017Z" fill="#29E088"/>
<path d="M30.8953 28.3063C29.2589 28.6456 27.5535 28.6356 25.898 28.2547C26.6536 26.4948 26.9327 24.51 26.6014 22.4805C26.462 21.6262 26.2209 20.8124 25.8948 20.0511C25.9675 20.0993 26.041 20.1522 26.1119 20.2031C28.8807 22.1925 30.5201 25.1691 30.8953 28.3063Z" fill="#0CC166"/>
<path d="M29.0182 28.9578C29.0182 28.9578 27.154 23.4458 29.8279 17.901C30.1417 17.2501 30.8712 16.908 31.5727 17.0815L33.0713 17.452C34.1751 17.725 34.5903 19.0533 33.8641 19.9283C32.5637 21.4956 31.2518 24.2096 31.9489 28.4794L29.0182 28.9578Z" fill="#893330"/>
<path d="M50.7642 38.0129C52.3521 47.7396 45.7544 56.912 36.0276 58.4999C26.3008 60.0878 17.1285 53.4901 15.5406 43.7633C12.935 27.8034 21.1198 28.3522 30.8466 26.7641C40.5733 25.1761 48.1585 22.0529 50.7642 38.0129Z" fill="#E01152"/>
<path d="M50.7635 38.0125C52.3516 47.7403 45.7525 56.9108 36.0276 58.4985C28.7597 59.685 21.804 56.3021 18.0864 50.4593C21.144 52.1266 24.7622 52.8295 28.4671 52.2247C37.3117 50.7809 43.3094 42.439 41.866 33.5973C41.361 30.5044 40.0123 27.7598 38.0934 25.56C44.2537 24.8668 48.8505 26.295 50.7635 38.0125Z" fill="#C40047"/>
<path d="M20.8595 42.8946C19.9047 37.0461 20.8124 35.1893 21.2476 34.6627C21.5568 34.2886 22.0994 33.9862 22.7744 33.7356C23.9849 33.2864 24.713 32.0483 24.505 30.7739C24.2319 29.1011 22.4994 28.0936 20.9096 28.6817C16.4482 30.3324 13.9273 33.8862 15.5398 43.763C15.8088 45.4114 16.296 46.9695 16.9666 48.4132C17.6698 49.9272 19.5629 50.4466 20.9275 49.4849L20.9717 49.4538C22.0291 48.7085 22.4047 47.3131 21.8581 46.1405C21.3885 45.1327 21.0474 44.045 20.8595 42.8946Z" fill="#FE255F"/>
<path d="M44.9096 33.15C46.0418 35.7488 45.9492 38.5731 44.8842 40.9762C42.3992 40.1196 40.268 38.2641 39.1358 35.6652C38.0868 33.2572 38.0893 30.6558 38.9423 28.375C39.0567 28.0695 39.401 27.9195 39.7026 28.0438C41.9539 28.9722 43.8606 30.742 44.9096 33.15Z" fill="#6AA16A"/>
<path d="M44.8842 40.9763C43.5702 40.5233 42.3552 39.7913 41.3337 38.8154C42.6219 37.8785 43.665 36.5782 44.2907 34.9866C44.5541 34.3166 44.7276 33.6325 44.8181 32.9495C44.8495 33.0148 44.8797 33.0839 44.9087 33.1504C46.0424 35.7494 45.9493 38.574 44.8842 40.9763Z" fill="#36835E"/>
<path d="M43.6165 40.7368C43.6165 40.7368 44.4007 37.062 47.7147 34.8665C48.1037 34.6087 48.6214 34.6595 48.9536 34.9874L49.6631 35.6875C50.1857 36.2034 49.9778 37.0776 49.286 37.3237C48.047 37.7645 46.4232 38.838 45.401 41.4383L43.6165 40.7368Z" fill="#893330"/>
<path d="M52.699 52.9394C50.3706 58.8626 43.6814 61.7767 37.7581 59.4483C31.8349 57.1199 28.9209 50.4307 31.2492 44.5075C35.0698 34.7886 39.432 37.7942 45.3551 40.1226C51.2782 42.451 56.5195 43.2206 52.699 52.9394Z" fill="#F0C36F"/>
<path d="M52.6987 52.9391C50.37 58.863 43.6807 61.7756 37.7587 59.4476C33.3328 57.7077 30.5883 53.5345 30.4529 49.0645C31.5999 50.999 33.3763 52.5831 35.6324 53.47C41.0184 55.5872 47.1004 52.9362 49.217 47.552C49.9573 45.6685 50.1145 43.6998 49.7753 41.8456C53.4234 43.4937 55.5037 45.8036 52.6987 52.9391Z" fill="#BB9040"/>
<path d="M34.4885 45.7805C35.8885 42.2191 37.0052 41.4879 37.4205 41.3392C37.7156 41.2336 38.1166 41.2447 38.5739 41.3285C39.3941 41.4786 40.2069 41.0316 40.512 40.2556C40.9124 39.2369 40.2832 38.1059 39.2067 37.9078C36.1855 37.3518 33.6135 38.4925 31.2491 44.5071C30.8545 45.5108 30.6107 46.5365 30.5065 47.5592C30.3972 48.6317 31.2766 49.5447 32.3514 49.4613L32.3862 49.4586C33.2191 49.3939 33.8881 48.7432 33.9716 47.912C34.0435 47.1973 34.213 46.4811 34.4885 45.7805Z" fill="#F2D194"/>
</g>
<rect x="5.7" y="5.7" width="52.6" height="48.6" rx="7.3" stroke="url(#paint1_linear_3007_6456)" stroke-width="1.4" style="mix-blend-mode:soft-light"/>
<defs>
<linearGradient id="paint0_linear_3007_6456" x1="5.13334" y1="58.1673" x2="58.6414" y2="58.1673" gradientUnits="userSpaceOnUse">
<stop stop-color="#4C5565"/>
<stop offset="0.0414257" stop-color="#6B768A"/>
<stop offset="0.0815191" stop-color="#4C5565"/>
<stop offset="0.899024" stop-color="#4C5565"/>
<stop offset="0.952865" stop-color="#6B768A"/>
<stop offset="1" stop-color="#4C5565"/>
</linearGradient>
<linearGradient id="paint1_linear_3007_6456" x1="32" y1="1" x2="32" y2="61" gradientUnits="userSpaceOnUse">
<stop stop-color="white" stop-opacity="0.9"/>
<stop offset="1" stop-color="white" stop-opacity="0.1"/>
</linearGradient>
<clipPath id="clip0_3007_6456">
<rect x="9" y="9" width="45" height="42" rx="3" fill="white"/>
</clipPath>
</defs>
</svg>
